<svg xmlns="http://www.w3.org/2000/svg" version="1.1" xmlns:xlink="http://www.w3.org/1999/xlink" xmlns:svgjs="http://svgjs.com/svgjs" width="445" height="332"><svg id="SvgjsSvg1000" data-name="Layer 1" xmlns="http://www.w3.org/2000/svg" viewBox="0 0 445 332"><defs><style>.cls-1{fill:none;stroke:#51c7d6;stroke-linecap:round;stroke-linejoin:round;stroke-width:18px;}</style></defs><path class="cls-1" d="M409,0H18A18,18,0,0,0,0,18V296a18,18,0,0,0,18,18H409a18,18,0,0,0,18-18V18A18,18,0,0,0,409,0ZM18,296V18H92.37L54.66,78.43s27-43,37.74-60.43h67.75L122.44,78.43s27-43,37.74-60.43h69l-35.8,57.36S217.53,36.93,229.27,18h68.38l-36,57.68S286,36.81,297.7,18h70.75L332.66,75.36S356.76,36.93,368.5,18H409V76.82c-50-.57-391,2.5-391,2.5L409,77.1V296Z" transform="translate(9 9)"></path><polygon class="cls-1" points="173.39 266.28 291.78 196.83 174.41 132.38 173.39 266.28"></polygon></svg><style>@media (prefers-color-scheme: light) { :root { filter: none; } }
</style></svg>