<?xml version="1.0" encoding="UTF-8" standalone="no"?>
<!DOCTYPE svg PUBLIC "-//W3C//DTD SVG 1.1//EN" "http://www.w3.org/Graphics/SVG/1.1/DTD/svg11.dtd">
<svg xmlns="http://www.w3.org/2000/svg" width="25.441" height="25.441" viewBox="0 0 25.441 25.441">
  <path id="Icon_awesome-link" data-name="Icon awesome-link" d="M16.229,9.212a7.549,7.549,0,0,1,.018,10.663l-.018.018L12.89,23.232A7.553,7.553,0,0,1,2.209,12.551l1.844-1.844a.794.794,0,0,1,1.356.527,9.156,9.156,0,0,0,.481,2.62.8.8,0,0,1-.188.825l-.65.65a3.578,3.578,0,1,0,5.027,5.092l3.339-3.339a3.577,3.577,0,0,0,0-5.06A3.722,3.722,0,0,0,12.9,11.6a.8.8,0,0,1-.345-.626A1.979,1.979,0,0,1,13.14,9.49l1.046-1.046a.8.8,0,0,1,1.023-.086,7.577,7.577,0,0,1,1.02.855Zm7-7a7.561,7.561,0,0,0-10.681,0L9.212,5.548l-.018.018a7.554,7.554,0,0,0,1.038,11.517A.8.8,0,0,0,11.254,17L12.3,15.951a1.979,1.979,0,0,0,.581-1.481.8.8,0,0,0-.345-.626,3.722,3.722,0,0,1-.514-.426,3.577,3.577,0,0,1,0-5.06l3.339-3.339a3.578,3.578,0,1,1,5.027,5.092l-.65.65a.8.8,0,0,0-.188.825,9.156,9.156,0,0,1,.481,2.62.794.794,0,0,0,1.356.527l1.844-1.844a7.561,7.561,0,0,0,0-10.681Z" transform="translate(0 0)" fill="#53ccca"/>
</svg>
