<?xml version="1.0" encoding="UTF-8" standalone="no"?>
<!DOCTYPE svg PUBLIC "-//W3C//DTD SVG 1.1//EN" "http://www.w3.org/Graphics/SVG/1.1/DTD/svg11.dtd">
<svg xmlns="http://www.w3.org/2000/svg" width="32.124" height="21.685" viewBox="0 0 32.124 21.685">
  <path id="Icon_zocial-email" data-name="Icon zocial-email" d="M.072,23.832V5.989q0-.031.093-.589l10.5,8.984L.2,24.452a2.625,2.625,0,0,1-.124-.62ZM1.466,4.161a1.335,1.335,0,0,1,.527-.093H30.276a1.754,1.754,0,0,1,.558.093L20.3,13.176l-1.394,1.115L16.15,16.552l-2.757-2.261L12,13.176ZM1.5,25.66,12.061,15.53l4.089,3.315,4.089-3.315L30.8,25.66a1.487,1.487,0,0,1-.527.093H1.993a1.4,1.4,0,0,1-.5-.093ZM21.633,14.384,32.1,5.4a1.849,1.849,0,0,1,.093.589V23.832a2.374,2.374,0,0,1-.093.62Z" transform="translate(-0.072 -4.068)" fill="#fff"/>
</svg>
