<?xml version="1.0" encoding="UTF-8" standalone="no"?>
<!DOCTYPE svg PUBLIC "-//W3C//DTD SVG 1.1//EN" "http://www.w3.org/Graphics/SVG/1.1/DTD/svg11.dtd">
<svg xmlns="http://www.w3.org/2000/svg" width="24.986" height="30.644" viewBox="0 0 24.986 30.644">
  <path id="icons8-apple-logo" d="M27.935,10.808a6.922,6.922,0,0,0-3.382,5.881,6.924,6.924,0,0,0,4.164,6.152,16.523,16.523,0,0,1-2.158,4.368C25.317,29.1,23.941,31,21.85,31c-1.989,0-2.7-1.258-5-1.258C14.388,29.742,13.691,31,11.8,31c-2.091,0-3.569-2.005-4.878-3.875a19.1,19.1,0,0,1-3.195-9.977,10.516,10.516,0,0,1,1.291-5.507A7.683,7.683,0,0,1,11.38,7.765c2.005-.068,3.79,1.377,5.014,1.377,1.173,0,3.365-1.377,5.846-1.377A6.816,6.816,0,0,1,27.935,10.808ZM16.224,7.375a6.053,6.053,0,0,1,1.546-4.708A6.524,6.524,0,0,1,22.393.356a6.655,6.655,0,0,1-1.7,4.81A5.222,5.222,0,0,1,16.224,7.375Z" transform="translate(-3.73 -0.356)" fill="#fff"/>
</svg>
