<?xml version="1.0" encoding="utf-8"?>
<!-- Generator: Adobe Illustrator 25.3.1, SVG Export Plug-In . SVG Version: 6.00 Build 0)  -->
<svg version="1.1"
	 id="svg2" inkscape:version="0.91 r13725" sodipodi:docname="Metacritic logo4.svg" xmlns:cc="http://creativecommons.org/ns#" xmlns:dc="http://purl.org/dc/elements/1.1/" xmlns:inkscape="http://www.inkscape.org/namespaces/inkscape" xmlns:rdf="http://www.w3.org/1999/02/22-rdf-syntax-ns#" xmlns:sodipodi="http://sodipodi.sourceforge.net/DTD/sodipodi-0.dtd" xmlns:svg="http://www.w3.org/2000/svg"
	 xmlns="http://www.w3.org/2000/svg" xmlns:xlink="http://www.w3.org/1999/xlink" x="0px" y="0px" viewBox="0 0 581.1 136.1"
	 style="enable-background:new 0 0 581.1 136.1;" xml:space="preserve">
<style type="text/css">
	.st0{fill:#FFCE35;}
	.st1{fill:#FFFFFF;}
</style>
<sodipodi:namedview  bordercolor="#666666" borderopacity="1" gridtolerance="10" guidetolerance="10" id="namedview16" inkscape:current-layer="svg2" inkscape:cx="346.44214" inkscape:cy="12.836259" inkscape:pageopacity="0" inkscape:pageshadow="2" inkscape:window-height="663" inkscape:window-maximized="0" inkscape:window-width="1056" inkscape:window-x="0" inkscape:window-y="0" inkscape:zoom="0.70479192" objecttolerance="10" pagecolor="#ffffff" showgrid="false">
	</sodipodi:namedview>
<g id="layer5" transform="translate(0,-882.28411)">
	<path id="path3481" d="M123.9,948.5c0,31.7-25.7,57.4-57.4,57.4S9.1,980.2,9.1,948.5c0-31.7,25.7-57.4,57.4-57.5
		C98.1,891,123.8,916.7,123.9,948.5"/>
</g>
<g id="layer2" transform="translate(0,-882.28411)">
	<path id="path3402" class="st0" d="M67.5,884.9c-36.3,0-65.6,29.4-65.6,65.7c0,36.3,29.4,65.6,65.7,65.6
		c36.3,0,65.6-29.4,65.6-65.7v-0.1C133.1,914.3,103.7,884.9,67.5,884.9z M67.2,899c28.4,0,51.4,23,51.5,51.4v0.1
		c0,28.4-23,51.4-51.4,51.4c-28.4,0-51.4-23-51.4-51.4C15.8,922,38.8,899,67.2,899z"/>
</g>
<g id="layer4" transform="translate(0,-882.28411)">
	<g id="text3351" transform="matrix(0.70710678,-0.70710678,0.70710678,0.70710678,0,0)">
		<path id="path3345" class="st1" d="M-660.9,743.5h15.8V713c0-1.3,0.1-2.8,0.6-4.1c1-2.7,3.4-5.9,7.6-5.9c5.1,0,7.5,4.5,7.5,11.1
			v29.3h15.8v-30.6c0-1.3,0.2-3,0.6-4.2c1.1-3.1,3.7-5.7,7.5-5.7c5.2,0,7.7,4.4,7.7,12v28.5h15.8v-30.8c0-15.6-7.6-22.7-17.7-22.7
			c-3.9,0-7.1,0.9-9.9,2.6c-2.5,1.5-4.8,3.5-6.7,6.3h-0.2c-2.2-5.5-7.6-8.9-14.3-8.9c-9,0-13.6,4.9-15.8,8.2h-0.3l-0.7-7.1h-13.7
			c0.2,4.6,0.4,10.2,0.4,16.7L-660.9,743.5L-660.9,743.5z"/>
	</g>
	<g id="text3345">
		<path id="path3348" class="st1" d="M154.7,976.7h15.1v-29c0-1.2,0.1-2.6,0.6-3.9c0.9-2.5,3.3-5.6,7.2-5.6c4.9,0,7.1,4.3,7.1,10.6
			v27.9h15.1v-29.1c0-1.2,0.2-2.9,0.6-4c1-3,3.6-5.4,7.1-5.4c5,0,7.3,4.2,7.3,11.4v27.1h15.1v-29.3c0-14.9-7.2-21.6-16.8-21.6
			c-3.7,0-6.7,0.8-9.5,2.4c-2.3,1.4-4.6,3.4-6.4,6H197c-2.1-5.2-7.2-8.5-13.6-8.5c-8.6,0-12.9,4.7-15.1,7.8H168l-0.7-6.7h-13
			c0.2,4.4,0.4,9.7,0.4,15.9L154.7,976.7L154.7,976.7z"/>
		<path id="path3350" class="st1" d="M283.6,956.7c0.2-1.1,0.5-3.5,0.5-6.1c0-12.3-6.1-24.9-22.2-24.9c-17.3,0-25.2,14-25.2,26.6
			c0,15.6,9.7,25.5,26.6,25.5c6.7,0,12.9-1.1,18-3.2l-2-10.5c-4.2,1.3-8.5,2-13.7,2c-7.2,0-13.5-3.1-14.1-9.5L283.6,956.7
			L283.6,956.7z M251.4,946.1c0.4-4.2,3.1-10.1,9.6-10.1c7.1,0,8.8,6.3,8.8,10.1H251.4z"/>
		<path id="path3352" class="st1" d="M292.8,916.1v10.8h-6.6v11.4h6.6v20.4c0,7,1.4,11.8,4.3,14.8c2.4,2.5,6.6,4.4,11.6,4.4
			c4.4,0,8-0.6,10.1-1.4l-0.1-11.7c-1.1,0.2-2.6,0.4-4.6,0.4c-4.7,0-6.1-2.7-6.1-8.8v-18h11.1v-11.4H308v-14.3L292.8,916.1
			L292.8,916.1z"/>
		<path id="path3354" class="st1" d="M367,947.2c0-11.7-5.3-21.5-21.9-21.5c-9.1,0-15.9,2.4-19.4,4.4l2.9,10c3.3-2,8.7-3.8,13.7-3.8
			c7.6,0,9.1,3.8,9.1,6.4v0.7c-17.6-0.1-29.2,6.1-29.2,19c0,7.9,6,15.3,16.1,15.3c5.9,0,11-2.1,14.3-6.1h0.3l0.9,5h14
			c-0.5-2.7-0.7-7.3-0.7-12.1V947.2z M351.9,958.5c0,0.9-0.1,1.8-0.3,2.6c-1,3.2-4.2,5.7-8,5.7c-3.5,0-6.1-1.9-6.1-5.9
			c0-6,6.3-7.9,14.5-7.8V958.5L351.9,958.5z"/>
		<path id="path3356" class="st1" d="M412.2,963.9c-2.3,1-5.2,1.6-8.9,1.6c-7.5,0-13.6-4.8-13.6-14c-0.1-8.1,5.2-14,13.3-14
			c4.1,0,6.8,0.7,8.7,1.5l2.4-11.5c-3.3-1.2-7.7-1.9-11.8-1.9c-18.5,0-28.5,11.9-28.5,26.5c0,15.7,10.3,25.6,26.4,25.6
			c5.9,0,11.1-1.1,13.9-2.3L412.2,963.9L412.2,963.9z"/>
		<path id="path3358" class="st1" d="M420,976.7h15.5v-25.3c0-1.2,0.1-2.4,0.3-3.5c1-4.8,4.9-7.8,10.6-7.8c1.7,0,3.1,0.2,4.2,0.5
			v-14.7c-1.1-0.2-1.8-0.2-3.3-0.2c-4.8,0-10.9,3.1-13.4,10.3h-0.4l-0.5-9.2h-13.3c0.2,4.3,0.4,9.1,0.4,16.4V976.7z"/>
		<path id="path3360" class="st1" d="M471.5,976.7v-49.8H456v49.8H471.5z M463.7,905.2c-5,0-8.2,3.4-8.1,7.8c-0.1,4.3,3.2,7.7,8,7.7
			c5.1,0,8.4-3.5,8.4-7.7C471.9,908.5,468.7,905.2,463.7,905.2z"/>
		<path id="path3362" class="st1" d="M483.3,916.1v10.8h-6.6v11.4h6.6v20.4c0,7,1.4,11.8,4.3,14.8c2.4,2.5,6.6,4.4,11.6,4.4
			c4.4,0,8-0.6,10.1-1.4l-0.1-11.7c-1.1,0.2-2.6,0.4-4.6,0.4c-4.7,0-6.1-2.7-6.1-8.8v-18h11.1v-11.4h-11.1v-14.3L483.3,916.1
			L483.3,916.1z"/>
		<path id="path3364" class="st1" d="M531.5,976.7v-49.8H516v49.8H531.5z M523.7,905.2c-5,0-8.2,3.4-8.1,7.8c-0.1,4.3,3.2,7.7,8,7.7
			c5.1,0,8.4-3.5,8.4-7.7C531.9,908.5,528.7,905.2,523.7,905.2z"/>
		<path id="path3366" class="st1" d="M576.7,963.9c-2.3,1-5.2,1.6-8.9,1.6c-7.5,0-13.6-4.8-13.6-14c-0.1-8.1,5.2-14,13.3-14
			c4.1,0,6.8,0.7,8.7,1.5l2.4-11.5c-3.3-1.2-7.7-1.9-11.8-1.9c-18.5,0-28.5,11.9-28.5,26.5c0,15.7,10.3,25.6,26.4,25.6
			c5.9,0,11.1-1.1,13.9-2.3L576.7,963.9L576.7,963.9z"/>
	</g>
</g>
</svg>
