<?xml version="1.0" encoding="UTF-8" standalone="no"?>
<!DOCTYPE svg PUBLIC "-//W3C//DTD SVG 1.1//EN" "http://www.w3.org/Graphics/SVG/1.1/DTD/svg11.dtd">
<svg xmlns="http://www.w3.org/2000/svg" width="17.6" height="31.993" viewBox="0 0 17.6 31.993">
  <g id="Group_229" data-name="Group 229" transform="translate(-13.2 -4.913)">
    <path id="Path_46" data-name="Path 46" d="M9,3.35V35.338a6.107,6.107,0,0,0,1.217-.117l2.009-.205c.689,0,2.772-.191,3.007-.191s.073-.352.088-6.776V21.3h0Z" transform="translate(4.2 1.563)" fill="#b1060f" fill-rule="evenodd"/>
    <path id="Path_48" data-name="Path 48" d="M16.73,3.36V17.5l6.263,17.835h0V3.36Z" transform="translate(7.807 1.568)" fill="#b1060f" fill-rule="evenodd"/>
    <path id="Path_50" data-name="Path 50" d="M9,3.35,15.336,21.3h0l.5,1.467c2.787,7.861,4.283,12.085,4.283,12.1h.939c1.54.073,3.461.235,4.913.411a3.872,3.872,0,0,0,.631,0L20.308,17.5h0l-.587-1.628c-.557-1.613-.939-2.684-3.227-9.137-.616-1.745-1.144-3.212-1.159-3.271V3.35H9Z" transform="translate(4.2 1.563)" fill="#e50914" fill-rule="evenodd"/>
  </g>
</svg>



