<?xml version="1.0" encoding="UTF-8" standalone="no"?>
<!DOCTYPE svg PUBLIC "-//W3C//DTD SVG 1.1//EN" "http://www.w3.org/Graphics/SVG/1.1/DTD/svg11.dtd">
<svg xmlns="http://www.w3.org/2000/svg" width="27.36" height="22.623" viewBox="0 0 27.36 22.623">
  <g id="Telegram__software_-Logo.wine" data-name="Telegram_(software)-Logo.wine" transform="translate(-41.625 -70.108)">
    <path id="Path_60" data-name="Path 60" d="M43.3,79.96l16.3-6.715c1.609-.7,7.065-2.938,7.065-2.938s2.518-.979,2.308,1.4c-.07.979-.63,4.407-1.189,8.114L66.035,90.8s-.14,1.609-1.329,1.889-3.148-.979-3.5-1.259c-.28-.21-5.246-3.357-7.065-4.9a1.325,1.325,0,0,1,.07-2.238c2.518-2.308,5.526-5.176,7.344-6.995.839-.839,1.679-2.8-1.819-.42l-9.862,6.645a4.11,4.11,0,0,1-3.218.07c-2.1-.63-4.546-1.469-4.546-1.469S40.435,81.079,43.3,79.96Z" fill="#fff"/>
  </g>
</svg>
